<svg xmlns="http://www.w3.org/2000/svg" viewBox="0 0 2910.97 1203.98"><defs><style>.cls-1{fill:#327bff;}.cls-2{fill:#444655;}.cls-3{fill:#666;}</style></defs><g id="레이어_2" data-name="레이어 2"><g id="레이어_1-2" data-name="레이어 1"><path class="cls-1" d="M579.47,43.58C533.32,15.71,481.42,0,426.51,0H167.67C75.07,0,0,77.09,0,172.19V852.26H426.51c54.91,0,106.81-15.71,153-43.58,115-69.42,194.14-214.61,194.14-382.55S694.45,113,579.47,43.58Zm12.86,610.68a50.81,50.81,0,0,1-81.8-57l-98.72-96a83.32,83.32,0,0,1-94.5-.51L196,650.68a50.81,50.81,0,1,1-22.81-18.57c1.48.6,2.76,1.48,4.15,2.2l122-150.65a83.28,83.28,0,0,1,53.16-133.91V222.24a50.84,50.84,0,1,1,24.83,0V349.75a83.24,83.24,0,0,1,54,132.84l95.18,94.78a50.71,50.71,0,0,1,65.88,76.89Z"/><path class="cls-2" d="M1064.89,247.32V358.59H1286V480.47H918.2v-355h360.71V247.32ZM1094.66,523v87.87h399V732.06H948V523Zm391.89-178.59v204.1H1339.86V118.34h146.69V222.52h61.65v121.9Z"/><path class="cls-2" d="M1873.48,228.21a195.21,195.21,0,0,1-4.25,41.09L2016.65,360l-79.39,101.36-131.1-80.8q-29.76,26.94-71.22,47.84t-95.32,33l-63.07-107Q1612,348,1640,335.21t47.12-29.42q19.14-16.64,29.41-36.85a90.48,90.48,0,0,0,10.29-41.46V116.94h146.68Zm56.7,518q-69.48,0-124-7.8T1714,714.7q-37.57-15.94-57.4-41.11T1636.79,613q0-34.72,19.85-59.9t57.4-41.44q37.55-16.29,92.12-23.75t124-7.45q69.43,0,124,7.45t92.13,23.75q37.55,16.3,57.39,41.44t19.84,59.9q0,35.41-19.84,60.58t-57.39,41.11q-37.59,15.94-92.13,23.73T1930.18,746.23Zm0-100.63q68,0,107.36-7.78T2076.87,613q0-17-39.33-24.81t-107.36-7.8q-68.06,0-107.36,7.8T1783.48,613q0,17,39.34,24.81T1930.18,645.6Zm22.68-337.33V181.43l109.84-24.11v-39h146.69V469.86H2062.7V284.17Z"/><path class="cls-2" d="M2468.05,302.61h81.5V132.52h146.71V710.81h-374.9V132.52h146.69Zm81.5,121.88h-81.5V588.91h81.5ZM2911,717.89H2764.28V118.34H2911Z"/><path class="cls-3" d="M120.4,954.34v26.51H32.62v89H0V954.34Zm-27.13,99.52a350.34,350.34,0,0,0,50.3-6.86l3.35,26.21a376.07,376.07,0,0,1-52.43,7.47q-27.13,2-72.85,2H0v-27.13H21.64Q67.36,1055.53,93.27,1053.86ZM61.57,1108v76.82H28.35V1108Zm150,63.4v26.52H28.35v-26.52Zm-10.67-239v195.69H168V932.39Zm37.8,76.51v26.82H191.42V1008.9Z"/><path class="cls-3" d="M327.37,949.46v40.23h44.81V949.46h30.48V1078.4H296.58V949.46Zm0,103h44.81V1015H327.37Zm188.68,56.69v94.5H483.13v-68H331.64v-26.52ZM457.83,937.27v157H426.74v-157Zm36,62.79v27.13H447.47v-27.13Zm22.25-68v163.39H484.66V932.08Z"/><path class="cls-3" d="M678.21,957.08v12.19a113.31,113.31,0,0,1-9,45.27,99.65,99.65,0,0,1-26.52,36.12q-17.54,15.24-42.22,23.16l-14.93-25.91q21-6.09,35.81-18.28a83.7,83.7,0,0,0,22.41-27.74,73.36,73.36,0,0,0,7.62-32.62V957.08Zm63.4-11.28v26.52H594.08V945.8Zm65.23,137.78v69.5H661.14V1186H628.83v-56.4h145.4v-21h-146v-25Zm7.62,92.05v25.3H628.83v-25.3ZM685.22,957.08v12.19a65.13,65.13,0,0,0,7.62,30.48q7.62,14.64,22.41,25.91t35.81,17.07L735.21,1068a112.29,112.29,0,0,1-41.15-21.64A98.8,98.8,0,0,1,667.54,1012a100.72,100.72,0,0,1-9.14-42.68V957.08Zm121.62-24.69v139.3H773.92V932.39Z"/><path class="cls-3" d="M1074.47,944.89V971.1a131.32,131.32,0,0,1-9,48.47,113.79,113.79,0,0,1-26.37,39.93,110.94,110.94,0,0,1-41.76,25.6l-16.46-26.52q21.33-7.3,36.12-20.88a94.5,94.5,0,0,0,22.56-30.63,85.83,85.83,0,0,0,7.77-36V944.89Zm130.16,162.16v96.63H1171.4v-70.11H1021.74v-26.52ZM1080.57,944.89V971.1a80.88,80.88,0,0,0,7.62,34.44,85.8,85.8,0,0,0,22.25,29.11q14.63,12.66,35.36,19.67l-16.16,25.6a113.94,113.94,0,0,1-41.3-24.23,103.11,103.11,0,0,1-25.91-37.8,125.21,125.21,0,0,1-8.69-46.79V944.89Zm124.06-12.5v162.16H1171.4V932.39Z"/><path class="cls-3" d="M1522.24,1060.72v26.21H1276.86v-26.21ZM1500,940v26.52H1298.81V940Zm-2.13,73.76v26.83H1301v-26.83Zm-5.19,99.07V1200H1306.43v-87.18ZM1369.22,950.07v81.08H1336.3V950.07Zm-30.78,189v34.75h121.92v-34.75Zm77.42-60v43.58h-32.61V1079Zm46.64-128.94v81.08h-32.92V950.07Z"/><path class="cls-3" d="M1767.62,946.72v25.9q0,41.16-20,72.4t-57.15,44.35l-16.77-26.22a99.13,99.13,0,0,0,36.28-21.33,94.8,94.8,0,0,0,22.55-31.7,93.72,93.72,0,0,0,7.62-37.5v-25.9Zm90.68,158.35q20.57,6.24,31.7,18a39.2,39.2,0,0,1,11.13,27.89q0,24.69-24.39,38.56t-67.36,13.87q-43,0-67.22-13.87t-24.23-38.56q0-24.69,24.39-38.4t67.06-13.72Q1837.72,1098.82,1858.3,1105.07Zm-84.59-158.35v24.69a90.46,90.46,0,0,0,7,35.51,81.27,81.27,0,0,0,21.19,29.26,96.57,96.57,0,0,0,34.29,19.35l-17.07,25.91q-23.48-8.22-39.63-24.53a109.37,109.37,0,0,1-24.53-38q-8.4-21.65-8.39-47.55V946.72Zm3.66,180.9q-13.11,2.91-20.12,9t-7,14.32q0,8.54,7,14.48t20.12,8.84q13.1,2.9,32,2.9t32-2.9q13.11-2.9,20-8.84a18.47,18.47,0,0,0,6.85-14.48q0-8.22-6.85-14.32t-20-9q-13.11-2.89-32-2.89T1777.37,1127.62Zm95.1-142.8V1012h-58.83V984.82Zm27.74-52.43V1091.5h-32.92V932.39Z"/><path class="cls-3" d="M2216.91,1072.6v26.22H1971.23V1072.6Zm-183.19,51.52v58.22H2001.1v-58.22Zm156.06,47.24v26.52H2001.1v-26.52ZM2035.85,940.92V971.1H2152.6V940.92h32.61v109.43h-182V940.92Zm0,83.83H2152.6v-28H2035.85Zm77.42,61.88v59.44h-32.92v-59.44Z"/><path class="cls-3" d="M2416.26,954v68.58h65.53V954h32.62v185.63H2383.64V954Zm0,158.81h65.53v-64.62h-65.53Zm176.49-181.06V1204h-33.23V931.78Z"/><path class="cls-3" d="M2911,1141.8v26.52H2665.9V1141.8Zm-47.85-184.72v26.21H2690.29V957.08Zm-109.43,97.24v96h-32.62v-96Zm66.75,0v96h-32.31v-96ZM2886,957.08v27.74q0,34.44-1.53,61.11t-7.62,62.34l-32.92-3.66a458.73,458.73,0,0,0,7.93-59.59q1.51-26.37,1.52-60.2V957.08Z"/></g></g></svg>